<svg width="238" height="50" viewBox="0 0 238 50" fill="none" xmlns="http://www.w3.org/2000/svg">
<path fill-rule="evenodd" clip-rule="evenodd" d="M9.84918 29.3671L7.52349 33.7375L7.52309 48.4193H-0.000822647L0.00047347 0.61813H7.52439L7.52382 21.4458L17.3739 0.61813H24.8978L14.4321 21.9238L24.8965 48.4193H17.1674L9.84918 29.3671ZM35.5186 37.425C35.5186 39.155 35.872 40.3727 36.5787 41.0784C37.2855 41.784 38.2317 42.1368 39.4173 42.1368C40.6029 42.1368 41.5491 41.784 42.2559 41.0784C42.9627 40.3727 43.3161 39.155 43.3162 37.425L43.3169 11.6124C43.3169 9.88241 42.9635 8.66463 42.2568 7.95899C41.55 7.25335 40.6038 6.90053 39.4182 6.90053C38.2326 6.90053 37.2864 7.25335 36.5796 7.95899C35.8728 8.66463 35.5194 9.88241 35.5193 11.6124L35.5186 37.425ZM27.9949 12.0905C27.995 8.22084 28.9754 5.25037 30.9363 3.17898C32.8971 1.10758 35.7243 0.0718994 39.4178 0.0718994C43.1114 0.0718994 45.9385 1.10758 47.8993 3.17898C49.86 5.25037 50.8403 8.22084 50.8402 12.0905L50.8395 36.9471C50.8394 40.8167 49.859 43.7872 47.8981 45.8586C45.9373 47.93 43.1101 48.9657 39.4165 48.9657C35.7229 48.9657 32.8958 47.93 30.9351 45.8586C28.9744 43.7872 27.9941 40.8167 27.9942 36.9471L27.9949 12.0905ZM63.1718 13.7977L63.1708 48.4195H56.3993L56.4006 0.618268H65.8397L73.568 29.2307L73.5688 0.618268H80.2719L80.2706 48.4195H72.5415L63.1718 13.7977ZM85.4897 12.0905C85.4898 8.22087 86.4133 5.25039 88.2601 3.179C90.107 1.1076 92.8771 0.0719205 96.5707 0.0719205C100.264 0.0719205 103.034 1.1076 104.881 3.179C106.728 5.25039 107.651 8.22087 107.651 12.0905L107.651 13.5928H100.537L100.538 11.6125C100.538 9.88254 100.207 8.66476 99.5459 7.95912C98.8847 7.25348 97.9613 6.90066 96.7757 6.90066C95.5901 6.90066 94.6667 7.25348 94.0055 7.95912C93.3443 8.66476 93.0137 9.88254 93.0136 11.6125C93.0136 13.2514 93.3783 14.6968 94.1079 15.9487C94.8375 17.2007 95.7494 18.3843 96.8438 19.4997C97.9381 20.6151 99.1123 21.7304 100.366 22.8458C101.62 23.9611 102.794 25.1789 103.889 26.4991C104.983 27.8194 105.895 29.3217 106.625 31.0061C107.354 32.6906 107.719 34.6709 107.719 36.9471C107.719 40.8168 106.772 43.7872 104.88 45.8586C102.988 47.93 100.195 48.9657 96.501 48.9657C92.8074 48.9657 90.0145 47.93 88.1222 45.8586C86.2298 43.7872 85.2837 40.8168 85.2838 36.9471L85.2839 34.0108H92.3974L92.3973 37.4251C92.3973 39.1551 92.7507 40.3615 93.4574 41.0444C94.1642 41.7272 95.1104 42.0687 96.296 42.0687C97.4816 42.0687 98.4278 41.7272 99.1346 41.0444C99.8414 40.3615 100.195 39.1551 100.195 37.4251C100.195 35.7862 99.8302 34.3408 99.1006 33.0889C98.371 31.8369 97.4591 30.6533 96.3647 29.5379C95.2704 28.4226 94.0962 27.3072 92.8422 26.1919C91.5883 25.0765 90.4141 23.8587 89.3198 22.5385C88.2254 21.2183 87.3135 19.7159 86.5839 18.0315C85.8544 16.3471 85.4897 14.3668 85.4897 12.0905ZM110.612 0.618107H133.868L133.868 7.44685H126.002L126.001 48.4193H118.477L118.478 7.44685H110.612L110.612 0.618107ZM153.653 48.4193C153.562 48.1006 153.47 47.8047 153.379 47.5315C153.288 47.2584 153.208 46.917 153.14 46.5072C153.072 46.0975 153.026 45.574 153.003 44.9366C152.98 44.2993 152.969 43.5026 152.969 42.5466L152.969 35.0349C152.969 32.8042 152.582 31.2336 151.807 30.3231C151.031 29.4126 149.777 28.9574 148.045 28.9574H145.445L145.445 48.4193H137.921L137.922 0.618085H149.277C153.198 0.618085 156.037 1.52858 157.792 3.34958C159.548 5.17059 160.425 7.92482 160.425 11.6124L160.425 15.3682C160.425 20.2849 158.784 23.5171 155.5 25.065C157.415 25.8389 158.726 27.1022 159.433 28.8549C160.14 30.6077 160.493 32.7359 160.493 35.2398L160.493 42.6148C160.493 43.7985 160.538 44.8342 160.63 45.7219C160.721 46.6097 160.949 47.5088 161.314 48.4193H153.653ZM145.447 7.44697L145.446 22.1288H148.387C149.801 22.1288 150.907 21.7646 151.705 21.0362C152.503 20.3078 152.902 18.9875 152.902 17.0755L152.902 12.3637C152.902 10.6337 152.594 9.38178 151.979 8.60785C151.363 7.83392 150.394 7.44697 149.072 7.44697H145.447ZM173.373 0.618249L173.372 37.4935C173.372 39.2234 173.725 40.4298 174.432 41.1127C175.139 41.7956 176.085 42.137 177.271 42.137C178.456 42.137 179.402 41.7956 180.109 41.1127C180.816 40.4298 181.169 39.2234 181.169 37.4935L181.17 0.618249H188.284L188.283 37.0154C188.283 40.8851 187.337 43.8555 185.444 45.9269C183.552 47.9983 180.759 49.034 177.065 49.034C173.372 49.034 170.579 47.9983 168.686 45.9269C166.794 43.8555 165.848 40.8851 165.848 37.0154L165.849 0.618249H173.373ZM214.744 0.618263H238L238 7.447H230.134L230.133 48.4195H222.609L222.61 7.447H214.744L214.744 0.618263Z" fill="#1A1A1A"/>
</svg>
