<svg width="0" height="0" >
  <symbol fill="none" xmlns="http://www.w3.org/2000/svg" viewBox="0 0 40 40" id="twitter">
    <path d="M26.3438 16.75C26.3646 16.8333 26.375 16.9688 26.375 17.1562C26.375 18.2604 26.1667 19.3646 25.75 20.4688C25.3333 21.5521 24.7396 22.5521 23.9688 23.4688C23.2188 24.3646 22.2396 25.0938 21.0312 25.6562C19.8229 26.2188 18.4896 26.5 17.0312 26.5C15.1979 26.5 13.5208 26.0104 12 25.0312C12.2292 25.0521 12.4896 25.0625 12.7812 25.0625C14.3021 25.0625 15.6667 24.5938 16.875 23.6562C16.1458 23.6562 15.5 23.4479 14.9375 23.0312C14.3958 22.5938 14.0208 22.0521 13.8125 21.4062C14.0208 21.4271 14.2188 21.4375 14.4062 21.4375C14.6979 21.4375 14.9896 21.4062 15.2812 21.3438C14.7812 21.2396 14.3333 21.0312 13.9375 20.7188C13.5417 20.4062 13.2292 20.0312 13 19.5938C12.7708 19.1354 12.6562 18.6458 12.6562 18.125V18.0625C13.1146 18.3333 13.6042 18.4792 14.125 18.5C13.1458 17.8333 12.6562 16.9167 12.6562 15.75C12.6562 15.1667 12.8125 14.6146 13.125 14.0938C13.9375 15.1146 14.9271 15.9271 16.0938 16.5312C17.2812 17.1354 18.5417 17.4688 19.875 17.5312C19.8333 17.2812 19.8125 17.0312 19.8125 16.7812C19.8125 15.8854 20.125 15.1146 20.75 14.4688C21.3958 13.8229 22.1667 13.5 23.0625 13.5C24.0208 13.5 24.8229 13.8438 25.4688 14.5312C26.2188 14.3854 26.9167 14.125 27.5625 13.75C27.3125 14.5208 26.8333 15.125 26.125 15.5625C26.75 15.4792 27.375 15.3021 28 15.0312C27.5417 15.6979 26.9896 16.2708 26.3438 16.75Z" fill="white"></path>
    <circle opacity="0.4" cx="20" cy="20" r="19.5" stroke="white"></circle>
  </symbol>
  <symbol fill="none" xmlns="http://www.w3.org/2000/svg" viewBox="0 0 40 40" id="facebook">
    <path d="M23.7188 21H21.375V28H18.25V21H15.7188V18.0938H18.25V15.9062C18.25 15.0729 18.4062 14.3646 18.7188 13.7812C19.0312 13.1979 19.4688 12.7604 20.0312 12.4688C20.6146 12.1562 21.2812 12 22.0312 12C22.3646 12 22.7188 12.0208 23.0938 12.0625C23.4688 12.0833 23.7604 12.1146 23.9688 12.1562L24.2812 12.1875V14.6562H23.0312C22.4479 14.6562 22.0208 14.8125 21.75 15.125C21.5 15.4167 21.375 15.7812 21.375 16.2188V18.0938H24.1562L23.7188 21Z" fill="white"></path>
    <circle opacity="0.4" cx="20" cy="20" r="19.5" stroke="white"></circle>
  </symbol>
  <symbol fill="none" xmlns="http://www.w3.org/2000/svg" viewBox="0 0 40 40" id="instagram">
    <path d="M20 16.4062C21.9688 16.4062 23.5938 18.0312 23.5938 20C23.5938 22 21.9688 23.5938 20 23.5938C18 23.5938 16.4062 22 16.4062 20C16.4062 18.0312 18 16.4062 20 16.4062ZM20 22.3438C21.2812 22.3438 22.3125 21.3125 22.3125 20C22.3125 18.7188 21.2812 17.6875 20 17.6875C18.6875 17.6875 17.6562 18.7188 17.6562 20C17.6562 21.3125 18.7188 22.3438 20 22.3438ZM24.5625 16.2812C24.5625 16.75 24.1875 17.125 23.7188 17.125C23.25 17.125 22.875 16.75 22.875 16.2812C22.875 15.8125 23.25 15.4375 23.7188 15.4375C24.1875 15.4375 24.5625 15.8125 24.5625 16.2812ZM26.9375 17.125C27 18.2812 27 21.75 26.9375 22.9062C26.875 24.0312 26.625 25 25.8125 25.8438C25 26.6562 24 26.9062 22.875 26.9688C21.7188 27.0312 18.25 27.0312 17.0938 26.9688C15.9688 26.9062 15 26.6562 14.1562 25.8438C13.3438 25 13.0938 24.0312 13.0312 22.9062C12.9688 21.75 12.9688 18.2812 13.0312 17.125C13.0938 16 13.3438 15 14.1562 14.1875C15 13.375 15.9688 13.125 17.0938 13.0625C18.25 13 21.7188 13 22.875 13.0625C24 13.125 25 13.375 25.8125 14.1875C26.625 15 26.875 16 26.9375 17.125ZM25.4375 24.125C25.8125 23.2188 25.7188 21.0312 25.7188 20C25.7188 19 25.8125 16.8125 25.4375 15.875C25.1875 15.2812 24.7188 14.7812 24.125 14.5625C23.1875 14.1875 21 14.2812 20 14.2812C18.9688 14.2812 16.7812 14.1875 15.875 14.5625C15.25 14.8125 14.7812 15.2812 14.5312 15.875C14.1562 16.8125 14.25 19 14.25 20C14.25 21.0312 14.1562 23.2188 14.5312 24.125C14.7812 24.75 15.25 25.2188 15.875 25.4688C16.7812 25.8438 18.9688 25.75 20 25.75C21 25.75 23.1875 25.8438 24.125 25.4688C24.7188 25.2188 25.2188 24.75 25.4375 24.125Z" fill="white"></path>
    <circle opacity="0.4" cx="20" cy="20" r="19.5" stroke="white"></circle>
  </symbol>
</svg>