<svg xmlns="http://www.w3.org/2000/svg" style="display:none;"><symbol viewBox="0 0 100 34"  id="engl">
<path d="M90.2167 26.5698C89.0667 26.5698 88.1333 25.641 88.1333 24.4966V0H88.1167H80.9167H70.7333C62.3167 0 55.3167 6.07025 53.9167 14.0478V13.5668C53.9167 6.07024 47.8167 0 40.2833 0C32.75 0 26.65 6.07024 26.65 13.5668V26.321H10.2167C8.7 26.321 7.48333 25.1102 7.48333 23.601C7.48333 22.0917 8.7 20.881 10.2167 20.881H23.1V12.9034H11.35C9.81667 12.9034 8.58333 11.6595 8.58333 10.1502C8.58333 8.64098 9.81667 7.38049 11.35 7.38049H23.1167V0H11.3333C5.8 0 1.31667 4.46146 1.31667 9.96781C1.31667 12.3893 2.18333 14.6117 3.63333 16.3366C1.41667 18.161 0 20.9307 0 24.0156C0 29.5219 4.48333 33.9834 10.0167 33.9834C10.3 33.9834 33.8167 33.9834 33.8167 33.9834V13.6166C33.8167 10.0673 36.7167 7.18146 40.2833 7.18146C43.85 7.18146 46.75 10.0673 46.75 13.6166V34H53.9167V19.9522C55.3 27.8137 62.1 33.801 70.35 34H70.3667C70.5 34 70.6167 34 70.75 34C73.2167 34 76.35 33.1873 77.6667 31.9766V13.6498H70.35V26.5698C64.55 26.5698 60.75 22.1912 60.75 17C60.75 11.5102 65.2333 7.04878 70.75 7.04878H80.9333V24.5132C80.9333 29.7541 85.2 34 90.4667 34H100V26.5698H90.2167Z" fill="black"/>
</symbol><symbol viewBox="10 10 100.000244 35.5" id="epiphone">
<path d="M61.1624 0.5H63.1155C63.3983 0.527006 63.6822 0.54321 63.9661 0.566975C63.4747 2.59136 62.8481 4.57685 62.2752 6.57747C61.5867 8.90324 60.8992 11.2279 60.1745 13.5418C60.9363 13.1562 61.7188 12.8148 62.5271 12.5491C63.4375 12.2531 64.3676 11.8934 65.338 11.9992C65.6064 11.9776 65.852 12.1721 65.9388 12.4335C66.2412 13.1832 66.0234 13.9966 65.9862 14.7722C66.747 14.5897 67.1579 13.8443 67.6833 13.3171C68.5019 12.5696 69.5352 12.0781 70.6098 11.9128C71.3634 11.8448 72.1985 11.8588 72.8406 12.3276C72.9954 12.5588 72.9438 12.9228 72.7786 13.1421C72.2491 13.3971 71.6194 13.3431 71.1136 13.665C70.9329 13.8421 70.9092 14.123 70.8266 14.3542C70.2051 16.5255 69.5476 18.6881 69.0077 20.8832C68.8673 21.3066 69.0211 21.8932 69.4805 22.0002C69.9688 22.0196 70.4746 22.0693 70.9546 21.9472C71.3541 21.5951 71.5234 21.0495 71.7391 20.5688C72.5402 18.2884 73.0181 15.9043 73.5621 13.5472C73.6271 13.2804 73.6736 13.0093 73.7087 12.737C73.5239 12.6031 73.334 12.454 73.2917 12.2077C73.8522 11.861 74.5417 11.7735 75.1683 11.9463C75.6184 12.1159 76.0076 12.4173 76.3885 12.7144C76.6734 12.9272 76.7694 13.3377 76.6971 13.6844C76.4225 15.5532 75.766 17.3324 75.4357 19.1883C75.3738 19.5113 75.766 19.4994 75.9715 19.4864C76.9263 19.3827 77.8223 18.9333 78.6038 18.3662C78.8969 18.1836 79.0001 17.8293 79.0982 17.5106C79.4977 16.0912 79.8094 14.648 80.1666 13.2167C80.2688 12.8019 80.3927 12.3924 80.564 12.0035C81.5561 11.8437 82.5863 11.8177 83.5752 12.0133C83.5659 12.5988 83.2542 13.1 83.1034 13.6477C83.858 13.5029 84.5135 13.0654 85.2155 12.7684C86.064 12.3978 86.9507 11.9625 87.8953 12.0802C88.3722 12.0997 88.8677 12.4259 88.9616 12.9423C89.1588 13.6866 88.7841 14.392 88.6674 15.1103C89.2228 15.0747 89.8091 14.837 90.1549 14.3639C90.4729 13.6531 90.5844 12.817 91.1026 12.2185C91.2636 12.0133 91.5289 11.9971 91.7611 11.9582C92.9266 11.7961 94.1044 11.7627 95.2792 11.7681C96.6067 11.7648 97.9393 11.7637 99.2596 11.9355C99.5239 11.9722 99.8315 12.0792 99.9079 12.3838C100.068 12.9261 100.001 13.5159 99.849 14.0528C99.4816 15.4193 99.1708 16.8052 98.7321 18.1502C98.665 18.2863 98.6392 18.5142 98.4596 18.5304C97.5099 18.6784 96.5468 18.6784 95.5888 18.6914C94.6484 18.7097 93.7049 18.6103 92.7687 18.7281C92.3661 19.5858 92.0636 20.504 91.947 21.4546C91.9212 21.8079 91.9242 22.3026 92.2979 22.4603C93.069 22.684 93.9103 22.5576 94.6185 22.1784C95.1367 21.9094 95.5228 21.4427 95.9078 21.0042C96.5478 20.9977 97.1899 20.9502 97.8289 21.0182C97.7164 21.6998 97.4294 22.335 97.0846 22.9194C96.937 23.1441 96.7873 23.385 96.5612 23.5287C96.0028 23.6454 95.4299 23.6238 94.8642 23.6443C93.0381 23.6573 91.2058 23.6832 89.3869 23.4931C88.973 23.4682 88.5291 23.2835 88.3567 22.859C88.1399 22.267 88.239 21.6113 88.3495 21.0052C88.7294 19.4799 89.357 18.0346 89.7214 16.5039C89.7658 16.3127 89.7833 16.116 89.8019 15.9205C89.1939 16.2403 88.6148 16.6411 88.0831 17.0818C87.6929 18.1426 87.4235 19.252 87.0767 20.3312C85.9164 24.1974 84.7633 28.0668 83.6051 31.9341C83.5401 32.1242 83.5411 32.3273 83.5473 32.5272C83.7321 32.5887 83.9251 32.6968 84.1244 32.6222C84.3824 32.5887 84.4836 32.3154 84.5961 32.1091C84.7747 31.771 84.9037 31.4069 85.0514 31.0537C85.5231 30.9403 86.0289 31.0332 86.5141 31.0137C86.4553 31.4804 86.223 31.8909 86.0227 32.3025C85.5985 33.1062 85.1556 33.9012 84.6529 34.6542C84.5104 34.8594 84.3742 35.0787 84.178 35.2321C83.7868 35.4201 83.345 35.4233 82.928 35.5H81.1927C80.5919 35.4438 79.988 35.4071 79.3965 35.2753C79.444 34.7049 79.6154 34.1583 79.7599 33.6096C81.2722 28.2105 83.0074 22.8849 84.5682 17.502C84.7004 16.9208 84.9595 16.3591 84.944 15.7509C84.5125 15.6267 84.0769 15.7769 83.664 15.9043C83.2232 16.0653 82.7772 16.236 82.3829 16.5028C82.2043 16.6162 82.1476 16.8409 82.0753 17.031C81.5106 18.9603 81.0812 20.9318 80.5021 22.8568C80.3989 23.0793 80.3648 23.4444 80.0716 23.4704C79.1839 23.6594 78.2383 23.6994 77.365 23.4164C77.4569 22.2432 77.9493 21.1651 78.2445 20.0417C77.2153 20.7071 76.0179 21.0701 74.8112 21.1176C74.4808 21.7787 74.4065 22.7153 73.6726 23.0426C72.8168 23.4639 71.8403 23.4034 70.9195 23.4736C69.6457 23.5849 68.3718 23.4628 67.097 23.439C66.8461 23.4261 66.5323 23.4282 66.394 23.1647C66.0554 22.5954 65.6817 21.9505 65.8015 21.2505C65.946 20.2231 66.2649 19.2347 66.5106 18.2312C66.7037 17.4404 66.9679 16.6594 67.0257 15.8406C66.5788 16.3062 66.0482 16.7177 65.3947 16.7653C64.5803 18.9431 64.1539 21.258 63.3467 23.439C62.1761 23.6076 60.9725 23.6184 59.806 23.4174C59.8235 22.6278 60.063 21.8716 60.2571 21.1154C60.6556 19.5631 61.1263 18.0313 61.5041 16.4736C61.6311 15.967 61.7673 15.456 61.7622 14.9289C61.1903 14.9731 60.6514 15.2022 60.1528 15.4841C59.8101 15.6894 59.4488 15.941 59.3157 16.3537C58.8036 17.798 58.4847 19.306 58.0645 20.7806C57.8354 21.5681 57.6568 22.3761 57.3296 23.1279C57.2397 23.412 56.9208 23.4239 56.6833 23.4585C55.8183 23.5568 54.9336 23.5914 54.0748 23.4207C54.1821 22.3275 54.7282 21.3369 54.816 20.2394C53.921 20.5969 53.0394 21.1241 52.0495 21.0798C51.8358 21.7571 51.6376 22.4927 51.1142 22.9864C50.6311 23.4326 49.955 23.4931 49.3418 23.5287C48.2342 23.5503 47.1286 23.4617 46.022 23.4563C45.9074 23.7156 45.8042 23.9802 45.7268 24.2546C44.9237 26.9444 44.2165 29.6634 43.4496 32.3651C43.1574 33.319 42.9148 34.2901 42.5577 35.2213C41.3757 35.3855 40.1721 35.3606 38.9829 35.3012C39.1171 34.1907 39.4918 33.1332 39.7695 32.0573C41.1228 27.2804 42.664 22.5651 44.0338 17.7937C42.3368 19.6117 40.5313 21.3488 38.4802 22.7239C37.9331 23.0588 37.3344 23.4682 36.6696 23.3548C36.3176 23.2792 35.8603 23.1074 35.8696 22.6515C35.8675 21.8003 36.1968 21.002 36.429 20.2005C35.5702 20.6455 34.6597 21.1079 33.677 21.0776C33.422 21.8856 33.1454 22.8309 32.3474 23.223C31.4917 23.6022 30.5317 23.5006 29.6263 23.4736C28.9347 23.4736 28.2431 23.4131 27.5525 23.4488C27.3667 23.6162 27.3254 23.8927 27.2335 24.1196C26.0887 27.7914 25.2061 31.5463 24.0995 35.2299C23.2304 35.3682 22.3467 35.325 21.4714 35.3444C21.1121 35.3261 20.7395 35.3779 20.3916 35.271C20.372 34.8886 20.5268 34.5256 20.6115 34.1605C21.5643 30.8085 22.6574 27.5029 23.6815 24.1747C23.8652 23.5211 24.082 22.8773 24.2368 22.214C21.6458 23.0761 19.0249 23.9068 16.3151 24.2417C14.1267 24.5258 11.8392 24.5052 9.74676 23.7005C8.68042 23.2889 7.71317 22.6213 6.876 21.823C5.30074 20.0665 4.81144 17.6068 4.47286 15.3026C4.3686 14.7852 4.42331 14.2062 4.1673 13.7373C3.71104 13.5094 3.17735 13.5688 2.68392 13.5526C1.78894 13.5645 0.894984 13.5181 0 13.5353V13.2934C0.139357 12.8397 0.29007 12.373 0.609043 12.0198C1.4039 12.0295 2.19875 11.996 2.9936 12.01C3.49839 11.9917 4.04446 12.0846 4.50279 11.8048C4.82486 11.6503 4.89402 11.2571 5.02719 10.9525C5.80862 9.04259 6.78206 7.19753 8.09099 5.62361C9.26468 4.14475 10.7636 2.93812 12.4616 2.19491C14.2568 1.39769 16.2429 1.25185 18.1701 1.33179C21.3299 1.6213 24.3256 3.0537 26.8351 5.0446C26.4676 5.55556 25.9814 5.95309 25.4879 6.32037C25.2784 6.45864 25.0575 6.6196 24.8005 6.62284C24.625 6.57855 24.4794 6.45972 24.3256 6.3679C23.4977 5.80509 22.578 5.41404 21.7387 4.87068C19.766 3.65864 17.3309 3.11852 15.0991 3.78503C13.8501 4.12531 12.8632 5.08349 12.0601 6.09784C10.938 7.55833 10.0833 9.24676 9.57333 11.0443C9.4123 11.4569 9.69824 11.983 10.1256 12.0079C15.0372 12.0208 19.9498 11.9927 24.8614 12.0219C24.5723 12.5415 24.274 13.059 23.9261 13.5397C19.3201 13.5289 14.7151 13.5386 10.1091 13.5343C9.68895 13.4954 9.40301 13.908 9.22443 14.2515C8.88171 15.1525 9.04894 16.1971 9.50108 17.0235C10.4673 18.9679 12.12 20.5397 14.0947 21.2904C16.6073 22.2735 19.4264 22.1449 21.9679 21.3434C22.9114 21.0647 23.8126 20.6466 24.6724 20.1573C24.9863 19.9963 24.9563 19.5772 25.0585 19.279C25.5798 17.3076 26.1765 15.3566 26.8309 13.4295C27.0106 12.9855 27.1117 12.4907 27.3977 12.1051C27.6671 11.9571 27.9871 12.0046 28.2813 11.9755C29.1071 11.9733 29.9422 11.9603 30.7567 12.1256C30.7629 12.7133 30.5368 13.262 30.3964 13.8216C29.6852 16.344 28.8666 18.8329 28.1863 21.3661C28.111 21.6372 28.0635 21.917 28.0449 22.2C28.5755 22.2583 29.1505 22.3836 29.6563 22.1427C29.8844 21.8014 29.9608 21.379 30.0971 20.9934C30.8764 18.3219 31.5288 15.6116 32.2091 12.912C32.335 12.4918 32.0316 12.1559 31.7404 11.9225C32.4052 11.5088 33.2156 11.5542 33.9619 11.5336C34.2871 11.5542 34.6649 11.4569 34.9405 11.6935C35.3224 11.9938 35.5454 12.5242 35.4257 13.0211C35.116 14.9721 34.5534 16.8668 34.1157 18.7886C34.0889 18.9431 34.0806 19.0997 34.0724 19.2574C34.3624 19.3568 34.667 19.4961 34.9766 19.4054C35.7126 19.2466 36.2339 18.6244 36.6902 18.0454C37.0722 17.596 37.1083 16.9684 37.2745 16.4174C37.6306 15.1125 37.9599 13.7957 38.4399 12.5329C38.5401 12.3406 38.5979 12.0306 38.8528 12.0176C39.7922 11.8361 40.7564 11.8804 41.706 11.9215C41.8454 11.9636 42.0653 11.916 42.1375 12.0802C42.0766 12.7651 41.8547 13.4208 41.6782 14.0798C41.3551 15.1924 41.0361 16.3073 40.7378 17.4286C40.6418 17.7753 40.5881 18.134 40.5736 18.4958C40.7915 18.3921 40.9989 18.2657 41.1889 18.1134C42.2604 17.26 43.2834 16.3418 44.3229 15.4452C44.5046 15.281 44.7203 15.1233 44.7977 14.8716C45.0816 14.0647 45.2509 13.2177 45.5688 12.4227C45.6349 12.2639 45.7226 12.0867 45.9023 12.0489C46.4514 11.8998 47.0243 11.902 47.589 11.8955C48.1671 11.8998 48.7544 11.8707 49.3212 12.0219C49.2757 12.3222 49.2179 12.6193 49.1333 12.9099C48.4324 15.3912 47.6117 17.8326 46.8747 20.302C46.6992 20.9264 46.4824 21.5432 46.4153 22.1935C46.9583 22.2778 47.524 22.3458 48.0566 22.1622C48.4251 21.3315 48.614 20.4316 48.8845 19.5642C49.4677 17.3551 50.0427 15.1417 50.5785 12.9196C50.724 12.5037 50.3968 12.1807 50.1356 11.9258C50.5341 11.6341 51.0306 11.5963 51.5003 11.5563C52.0113 11.5358 52.5284 11.5045 53.0384 11.5563C53.5958 11.7497 53.9519 12.4346 53.8116 13.0319C53.5401 14.6264 53.1251 16.1884 52.7401 17.7548C52.6224 18.2485 52.4551 18.7367 52.4459 19.2509C52.8133 19.4065 53.2283 19.5199 53.6082 19.3319C54.3659 19.0003 54.9367 18.3046 55.3527 17.5841C56.0537 15.5889 56.6627 13.5591 57.3141 11.5444C58.4372 7.91589 59.6202 4.30571 60.6628 0.651235C60.8001 0.532407 60.9952 0.54429 61.1624 0.5V0.5ZM94.0735 14.1122C93.8061 15.1028 93.2249 16.0491 93.3715 17.1164C93.4097 17.2719 93.4438 17.5247 93.644 17.5204C94.1416 17.5765 94.6422 17.5258 95.1419 17.5182C95.4288 16.7782 95.6146 16.0015 95.8149 15.2335C95.9057 14.8025 96.0657 14.3844 96.0771 13.9394C95.6621 13.746 95.1976 13.8227 94.7579 13.7946C94.5101 13.8151 94.1178 13.7611 94.0735 14.1122Z" fill="#010101"/>
<path d="M40.6365 2.65304C41.9954 2.12173 43.6966 3.03117 43.9344 4.49548C44.3035 5.95337 43.0609 7.57086 41.5474 7.49052C40.2024 7.62121 38.9609 6.3797 39.0025 5.04286C38.9524 4.00059 39.6617 2.99475 40.6365 2.65304Z" fill="#010101"/>
</symbol><symbol viewBox="0 0 100 43.5" id="esp">
<path d="M84.9317 40.8204H85.3723C85.5904 40.8204 85.7468 40.7918 85.8415 40.738C85.9336 40.6756 85.9779 40.5854 85.9779 40.4535C85.9779 40.3364 85.9353 40.2488 85.8415 40.1863C85.7511 40.1282 85.6086 40.0961 85.4279 40.0961H84.9317V40.8204ZM84.3982 42.3315V39.6806H85.6538C85.9666 39.6806 86.1934 39.7491 86.3359 39.8966C86.4758 40.0406 86.5488 40.2184 86.5488 40.4275C86.5488 40.6331 86.4897 40.7961 86.3698 40.9211C86.2508 41.0434 86.0726 41.1284 85.8319 41.1692C85.9414 41.2099 86.0266 41.268 86.09 41.3409C86.1543 41.4103 86.2569 41.5647 86.3968 41.7989L86.7061 42.3315H86.0396L85.8224 41.9065C85.6886 41.6497 85.5678 41.4754 85.467 41.3817C85.367 41.2889 85.2376 41.2412 85.0681 41.2412H84.9317V42.3315H84.3982ZM85.5608 38.9892C84.9499 38.9892 84.4477 39.1879 84.0662 39.5982C83.6865 39.9981 83.4962 40.4683 83.4962 40.9991C83.4962 41.5508 83.69 42.0271 84.0862 42.4183C84.4833 42.8086 84.9543 43.0064 85.5078 43.0064C86.0587 43.0064 86.5323 42.8086 86.9286 42.4183C87.3205 42.0271 87.5203 41.5508 87.5203 40.9991C87.5203 40.6183 87.4213 40.2705 87.2214 39.9521C87.0242 39.6294 86.7669 39.3865 86.4559 39.2261C86.1465 39.069 85.8441 38.9892 85.5608 38.9892ZM85.4348 38.5C86.1813 38.5 86.7948 38.7472 87.2762 39.2425C87.7593 39.737 88 40.3251 88 40.9991C88 41.6827 87.755 42.2717 87.2675 42.7609C86.7756 43.2528 86.1856 43.5 85.5009 43.5C84.8048 43.5 84.2183 43.2528 83.7291 42.7627C83.2398 42.2769 83 41.687 83 40.9991C83 40.5125 83.1277 40.0675 83.3867 39.6641C83.6422 39.259 83.9654 38.9624 84.3521 38.7785C84.7405 38.5902 85.0985 38.5 85.4348 38.5Z" fill="black"/>
<path d="M15 0.5L30 0.500896V18.5L15 0.5Z" fill="black"/>
<path d="M24.9924 12.5L25 30.5L19.6326 26.4367L16.0109 26.4402L16 16.882H19.6267L24.9924 12.5Z" fill="black"/>
<path d="M30 24.5V43.4888L15 43.5L30 24.5Z" fill="black"/>
<path d="M33 21.5V43.5L49 43.4876L33 21.5Z" fill="black"/>
<path d="M45 0.50897L60.9852 0.5L61 21.5L45 0.50897Z" fill="black"/>
<path d="M65 0.510601L65.0325 43.5L81 43.4867L80.9728 0.5L65 0.510601Z" fill="black"/>
<path d="M83 0.503513L83.0184 25.4959C83.0184 25.4959 83.4844 25.5038 87.92 25.4977C95.8101 25.4959 100.008 19.8871 100 13.0418C99.9939 6.18951 95.9614 0.494738 87.906 0.500004C83.5762 0.506147 83 0.503513 83 0.503513Z" fill="black"/>
<path d="M50.5116 43.5L53.1831 43.4973C63.0511 43.4894 64.5547 32.2304 61.738 28.0573C59.9433 25.4201 45.5942 6.66419 43.9865 4.45304C42.3177 2.15792 44.4385 0.5 44.4385 0.5L41.8203 0.507069C31.9462 0.512371 30.4434 11.8412 33.2654 16.0117C35.054 18.6523 49.2256 37.547 51.0133 39.623C53.0275 41.9578 50.5116 43.5 50.5116 43.5Z" fill="black"/>
<path d="M15 43.4876V0.5L0 0.514137L0.0283132 43.5L15 43.4876Z" fill="black"/>
</symbol>
<symbol viewBox="0 0 99.99937 65.99987" id="fender">
<path d="M10.0326 31.0535C10.5554 31.7031 11.8318 32.9985 10.7845 34.001C9.68349 35.0472 5.9221 37.4343 4.01723 37.3852C2.03001 37.4343 -0.349279 34.827 0.0427943 32.4727C0.350724 31.0899 2.02822 29.1795 2.83564 28.3262C3.64127 27.4074 12.9723 17.719 18.626 14.3512C20.1549 13.4197 23.6477 12.6682 24.6413 13.1504C25.6618 13.6253 27.205 15.0571 27.2194 18.3903C27.2042 20.6464 27.2042 22.9025 27.2194 25.1586C27.205 26.041 27.5416 26.8598 28.7232 25.9228C29.3552 25.4279 30.8322 25.3587 31.8383 25.4861C32.8444 25.6317 33.4478 26.3831 32.5902 27.0144C31.704 27.6112 28.1467 30.6824 26.8971 31.9269C27.0045 39.3465 23.2431 59.6094 22.6004 61.9474C22.0973 64.0125 20.6938 65.0004 18.9482 65.659C17.2027 66.2267 14.1807 66.365 14.6515 63.8032C15.1206 61.3142 19.6858 43.0981 20.2372 37.7108C20.3572 37.1614 19.9544 36.9558 19.4853 37.4925C19.0145 38.0474 16.6638 40.1616 14.6515 40.3308C12.6375 40.5728 11.182 39.1045 10.8919 38.6933C10.7577 38.4568 10.6234 37.911 11.2142 37.6017C11.8318 37.3651 17.9403 33.6808 21.8485 30.2876C22.0347 27.7458 22.3498 21.3997 22.3856 19.4802C22.5055 18.0574 21.3651 18.8743 20.7743 19.371C20.1567 19.8295 12.2347 26.585 9.81777 29.4142C9.27889 29.9983 9.54743 30.7479 10.0326 31.0535Z" fill="black"/>
<path d="M36.0131 30.8757C36.462 31.144 37.4105 30.8027 37.8595 30.2188C38.3609 29.5728 39.447 28.4761 39.2714 27.9195C39.1773 27.3812 38.2939 26.9013 36.8819 27.0436C35.4428 27.1768 32.9303 27.383 29.4963 32.2991C28.517 34.2243 29.0619 36.3447 30.4739 36.3502C31.2323 36.3447 31.8442 37.2352 31.3427 37.9907C30.7581 38.7389 28.9261 41.8885 30.7997 44.0144C32.7257 46.1312 35.8501 44.4889 37.2078 42.3721C38.5654 40.2462 40.5331 36.6203 41.1178 35.6932C41.4165 35.0473 41.8926 35.3885 41.7695 35.9122C41.7568 36.3447 42.1279 38.686 42.5298 39.5254C43.0131 40.5874 44.1662 40.6221 44.4848 39.4141C44.912 38.2608 46.8815 32.6148 47.8517 31.5308C48.1359 31.2462 48.4093 31.3483 48.2862 31.7498C48.2735 32.2389 48.1034 34.8739 48.8292 36.0199C49.528 37.2681 50.5797 38.3283 52.0876 37.0053C53.5665 35.5911 54.01 34.0181 54.3684 33.1732C54.5187 32.7863 54.9984 32.6914 55.1287 33.0637C55.469 34.6312 59.8805 36.7535 61.6454 30.4359C61.7124 29.8429 62.3912 29.6367 62.6229 30.217C62.7985 30.8684 63.4104 31.6239 64.4693 31.5308C65.4468 31.4852 67.6879 29.8429 68.5966 27.4797C68.841 26.9688 69.4528 27.175 69.7913 27.4797C70.1316 27.7224 71.4205 28.5436 72.6152 28.0272C73.8643 27.5856 75.765 26.0126 77.3941 22.9907C79.0233 19.9888 81.4671 14.925 82.0644 13.4651C82.4174 12.529 83.0963 12.872 82.9333 13.5746C82.622 14.5162 81.1956 20.0235 83.4764 21.8976C85.8134 23.7881 89.6148 20.5381 90.7534 19.4888C91.9228 18.3483 98.0992 12.8739 99.6596 11.2771C100.474 10.4779 99.7283 8.63116 98.4648 9.63481C97.147 10.6841 91.2421 15.8848 89.8845 16.8611C88.5268 17.9377 86.7999 19.5509 85.7573 18.7224C85.0314 18.1093 85.3373 16.1585 85.7573 15.1093C86.1519 14.1056 87.238 11.2315 87.6037 10.4012C88.0526 9.58919 87.5765 8.28809 86.8434 8.10196C86.0831 8.01437 84.997 8.28992 84.5625 9.08736C84.2856 9.487 83.6393 9.58919 83.6936 8.86838C83.7081 8.08371 83.8439 6.06546 82.7161 5.14575C81.5359 4.1494 79.9682 4.66765 78.9147 6.24247C77.6657 8.11838 76.9868 11.4724 79.0233 11.9359C79.4994 12.0874 79.8053 12.5326 79.4578 13.2498C79.0577 13.9706 76.1035 20.3356 74.7875 22.3374C73.5257 24.3045 72.4396 25.1257 71.8549 24.6367C71.3535 24.1659 71.9979 21.7042 75.2219 18.5053C75.431 18.3405 75.57 18.1015 75.6103 17.837C75.6507 17.5725 75.5895 17.3025 75.4391 17.0819C75.2219 16.6403 74.0688 16.5381 73.2669 16.8629C72.4378 17.2899 71.9979 17.5637 71.5291 17.9578C70.9788 18.248 70.6403 18.248 70.443 17.9578C70.233 17.6312 69.9615 16.9469 72.6152 15.3301C73.0841 15.0326 73.4914 14.8958 74.353 15.0016C75.2563 15.0326 75.5278 14.6549 75.765 14.3447C76.0021 14.0399 76.6809 13.1166 76.9597 12.5928C77.1552 12.0892 76.9524 11.6111 76.1994 11.4979C75.3921 11.4724 72.8451 11.4724 69.6809 14.0162C68.0934 15.237 67.1086 17.0162 67.2914 17.9578C67.3801 18.9998 67.4815 19.9925 69.5723 20.1476C70.2638 20.164 70.2312 20.8812 69.8981 21.2425C69.6212 21.7042 68.9079 22.3538 68.4862 23.2133C68.2617 23.9286 66.8099 26.06 66.2053 27.0454C65.5138 28.2389 64.2919 28.4451 64.3589 26.717C64.4603 25.8429 64.4947 23.8246 64.4675 22.9943C64.9708 21.2918 68.7034 5.27896 69.0292 2.8483C69.3152 1.51618 68.5676 0.0782222 67.8345 0.00157973C67.0742 -0.0586393 63.8828 1.5837 62.8384 8.21327C61.7106 14.8611 61.3721 16.4341 61.4264 18.1768C58.7238 18.0071 56.6203 19.7863 55.67 22.6659C54.7196 25.5345 53.7693 28.956 53.1719 30.7662C52.5474 32.6513 52.0043 33.7462 51.3255 33.6148C50.6467 33.4724 50.9852 30.6002 51.2169 29.1257C51.5282 27.7243 51.9355 25.3976 52.1944 23.9797C52.4804 22.5253 51.8016 22.2516 51.2169 22.3374C50.5779 22.3885 47.0498 24.1659 46.0035 28.5783C45.8261 29.5728 44.74 30.0509 44.9174 28.7972C45.0133 27.4505 45.0803 26.5618 44.0485 26.6075C43.5145 26.5618 42.1623 27.3137 41.3332 29.3447C40.5331 31.2827 38.5636 35.3192 37.206 37.8849C35.8483 40.5217 34.2861 42.2334 33.5132 41.498C32.6569 40.8648 34.6264 37.4432 35.251 36.571C36.0511 36.0035 37.5463 34.8411 37.0974 34.0527C36.7317 33.1987 34.5595 33.5418 33.839 34.1622C33.2 34.8429 32.2497 35.2535 31.884 34.8192C31.4351 34.4305 32.3854 33.0619 33.1873 32.1914C34.0164 31.2827 34.764 30.3228 36.0131 30.8757Z" fill="black"/>
<path d="M60.5707 22.0323C59.5688 21.6933 57.8788 24.1019 57.4647 25.5632C57.0021 27.0441 56.6264 29.5865 57.6651 29.9523C58.6286 30.3894 59.8811 27.7131 60.3703 26.4214C60.883 25.1725 61.384 22.696 60.5707 22.0323Z" fill="white"/>
<path d="M90.0015 4.55738C89.9441 2.51093 91.5599 1.04399 93.4434 1C95.3594 1.04208 96.9751 2.51093 97 4.55738C96.9751 6.51393 95.3613 7.98279 93.4434 8C91.5599 7.98279 89.9441 6.51393 90.0015 4.55738Z" fill="black"/>
<path d="M93.4501 6.99999C94.1259 6.99792 94.7734 6.68739 95.2512 6.13626C95.729 5.58513 95.9982 4.83823 96 4.05882C95.9694 2.31961 94.8679 1.04706 93.4501 1C92.0613 1.04706 90.9598 2.31961 91.0023 4.05882C90.988 4.43953 91.0408 4.81962 91.1575 5.17613C91.2742 5.53264 91.4523 5.85817 91.6811 6.13306C91.9098 6.40796 92.1846 6.6265 92.4886 6.77551C92.7927 6.92451 93.1198 7.00088 93.4501 6.99999Z" fill="white"/>
<path d="M92.5769 6H92V2H93.5C94.4308 2.01905 94.9019 2.36762 94.8846 3.14286C94.9 3.86667 94.4481 4.17714 93.8462 4.28571L95 6H94.3077L93.2692 4.28571H92.5769V6Z" fill="black"/>
<path d="M93.8 3.98573C94.4178 4.02978 94.9511 3.99878 95 3.49638C94.9511 3.0527 94.4267 2.97277 93.9333 3.00702H93V3.98573H93.8Z" fill="white"/>
</symbol><symbol viewBox="0 0 100 64.00015" id="gibson">
<path d="M23.4998 16C25.4326 16 27 14.4324 27 12.4998C27 10.5672 25.4326 9 23.4998 9C21.567 9 20 10.5676 20 12.4998C20 14.4321 21.567 16 23.4998 16Z" fill="black"/>
<path d="M18.0801 19.444C18.0801 19.444 18.0801 14.7599 18.0801 12.3598C18.0801 9.95331 15.74 7.76435 13.9297 8.31508C12.1302 8.8723 4.56981 11.2208 4.25966 11.3617C3.95051 11.508 0 13.0572 0 17.4539L0.0596835 46.0225C0.0596835 46.0225 0.230016 48.8962 3.16993 48.8386C3.16993 48.8386 4.02998 48.8386 5.40974 48.0771C5.40974 48.0771 8.81002 46.1828 9.04004 46.0805C9.25966 45.9847 11.1102 45.3828 11.1699 47.9554V64L16.7503 62.1821C16.7503 62.1821 16.7503 48.4164 16.7503 47.9554C16.7503 46.9893 17.4407 42.2079 19.8602 40.2311C20.0101 40.1029 21.1806 39.3353 22.22 40.7559C23.2698 42.1769 24.1802 42.3941 24.1802 42.3941C24.1802 42.3941 25.3098 42.8995 26.3107 41.1655C26.3704 41.0441 28.1307 38.0807 28.2105 37.9463C28.2903 37.812 28.5505 37.415 29.3002 37.4795C29.3002 37.4795 31.1508 37.3577 30.86 39.9944C30.86 39.9944 39.4203 37.3513 40.1301 36.9478C40.2397 36.9032 43.5099 35.5722 45.4802 32.5C45.4802 32.5 46.07 31.6168 46.8096 31.6809C46.9397 31.6809 48.7601 31.7962 48.2403 34.2538C48.2403 34.2538 56.54 31.6748 57.0001 31.4446C57.9802 31.035 60.57 29.9404 60.5107 26.8812C60.5405 25.9724 60.3004 24.3856 59.0102 23.2463C58.9405 23.1757 53.3 18.9516 53.2501 18.9137C52.7599 18.4912 52.5101 17.5309 53.3098 16.5137C53.3098 16.5137 53.9398 15.5793 54.8696 15.637C54.8696 15.637 55.57 15.6049 56.6504 17.045C56.7898 17.1858 57.5899 18.274 58.1502 18.3889C58.1502 18.3889 58.6099 18.5424 59.1802 17.9794C60.5804 16.7442 61.3104 16.6931 61.3104 16.6931C61.3104 16.6931 63.3302 16.1045 63.3302 18.4466C63.3302 18.4466 63.3302 22.9077 63.3302 23.368C63.3302 24.4436 64.72 27.7391 67.8802 27.5795C67.8802 27.5795 68.97 27.4643 70.0104 27.17L73.4003 26.0631C73.4003 26.0631 77.67 24.7577 79.1601 21.961C79.1601 21.961 79.8699 20.5591 80.8899 20.5591C80.8899 20.5591 82.67 20.3228 82.5 23.0748L87.3401 21.4362V9.54989C87.3401 9.54989 87.2006 8.14219 88.8301 8.14219C90.4403 8.14219 90.39 9.42815 90.39 9.42815C90.39 9.42815 90.39 33.5108 90.39 34.0226C90.39 34.7139 91.1001 36.8639 93.4398 36.8319C93.4398 36.8319 100 36.7746 100 31.0913C100 30.6691 100 28.9279 100 28.9279L98.3299 29.5107V31.5646C98.3299 31.5646 98.4405 32.9474 96.8901 33.0238C96.7499 33.0559 95.23 32.9982 95.28 31.5005V1.40959C95.28 1.40959 95.1603 0.00154597 93.7795 0.00154597C93.7795 0.00154597 92.5198 -0.113716 91.5397 1.64625C90.5596 3.39973 90.2099 4.74366 88.8902 4.74366C88.8902 4.74366 87.3199 4.93565 87.3397 3.51465V1.99169L82.38 3.6364C82.38 3.6364 82.38 9.21706 82.38 9.42815C82.38 10.8682 81.3201 18.0104 79.4501 18.0356C79.3197 18.0551 77.56 18.3047 77.4896 16.5127C77.4896 16.5127 77.4896 10.3881 77.4896 9.78007C77.5396 8.87162 76.8401 6.1575 74.6097 6.44599L72.6003 6.85555C72.6003 6.85555 72.6003 20.9796 72.6003 21.4345C72.6003 21.8823 72.4397 24.0327 70.0597 24.1282C69.8498 24.1606 67.5298 24.0644 67.5298 21.7861V12.3022C67.5298 12.3022 67.4202 10.5999 69.0897 10.4846L69.1396 8.02693C69.1396 8.02693 64.0793 9.19831 61.7198 13.5312C61.4401 13.8381 60.85 14.1133 60.4496 14.1133C60.2099 14.1133 59.0702 14.0427 59.0099 12.8843C59.0099 12.6091 59.0099 11.3037 59.0099 11.3037L50.6602 14.113C50.6602 14.113 47.38 15.1694 47.38 18.5676C47.38 18.5676 47.38 20.9097 48.8201 22.017L54.6399 26.4713C54.6399 26.4713 55.63 27.1884 55.1499 28.4045C55.0892 28.6091 54.4095 30.0106 53.0194 30.0427C52.7491 30.0744 51.8693 30.0427 51.3493 28.6923C51.3493 28.6923 50.8896 26.9384 49.3995 27.4633C49.3995 27.4633 46.5994 28.4617 46.3999 28.5194C46.2104 28.577 44.5598 28.8713 44.5598 26.8808C44.5598 26.8808 44.5598 20.8074 44.5598 20.3214C44.5598 19.8345 43.9696 17.0573 41.6799 17.1599C41.6799 17.1599 40.3594 17.2752 39.2104 17.8061V20.6734C39.2104 20.6734 40.7601 20.4367 40.7601 22.4848V32.3851C40.7601 32.3851 40.8299 34.8554 38.29 34.9004C36.1595 34.8748 35.8101 32.8076 35.8101 32.558C35.7896 31.1568 35.8698 1.00071 35.8698 1.00071L30.8004 2.99052L30.86 24.5957C30.86 24.5957 30.5502 31.61 28.6098 34.3173C28.0506 35.0917 26.08 35.0917 25.91 33.3761V22.2536L20.9603 23.8345C20.9603 23.8345 20.9603 27.5847 20.9603 28.34C20.9603 29.0953 20.2699 38.0418 17.7401 37.9139C17.4199 37.9207 16.7399 37.5617 16.7295 36.0261L16.76 25.1273L11.9199 26.8808C11.9199 26.8808 11.87 32.8707 11.8596 33.2039C11.7097 35.1241 11.9793 43.8018 6.3298 43.8018C6.3298 43.8018 4.94971 43.8595 4.94971 42.1633V17.9211C4.94971 17.9211 5.10964 15.182 7.19957 14.2282C7.19957 14.2282 9.33007 13.4538 9.78977 13.2939C10.2397 13.1339 11.9796 13.2939 11.9796 15.2267V21.3769L18.0801 19.444Z" fill="black"/>
<path d="M96 1.49692C96 0.590079 96.7074 0 97.5005 0C98.2929 0 99 0.590079 99 1.49692C99 2.41576 98.2929 3 97.5005 3C96.7074 3 96 2.41576 96 1.49692ZM97.5005 0.316438C96.8772 0.316438 96.3866 0.809575 96.3866 1.49724C96.3866 2.19075 96.8776 2.68324 97.5005 2.68324C98.1132 2.68324 98.6137 2.19042 98.6137 1.49724C98.6137 0.809251 98.1132 0.316438 97.5005 0.316438ZM97.2357 2.33665H96.9149V0.657192H97.5381C97.9437 0.657192 98.1699 0.790771 98.1699 1.15584C98.1699 1.45996 97.9905 1.58154 97.7738 1.60618L98.1699 2.33665H97.8114L97.4435 1.6185H97.2357V2.33665ZM97.2357 1.36269H97.5191C97.7548 1.36269 97.8399 1.28423 97.8399 1.12569C97.8399 0.96747 97.7365 0.918837 97.5008 0.918837H97.236V1.36269H97.2357Z" fill="black"/>
</symbol>
<symbol viewBox="0 0 100.000404 26" id="marshal">
<path d="M13.5299 25.663C13.0853 25.3334 13.0952 25.2474 13.971 21.7411C14.4634 19.7692 14.9177 17.5293 14.9803 16.7635L15.0943 15.3713L13.9208 17.6802C11.8308 21.7927 10.2918 23.7897 8.30001 24.9737C7.05189 25.7155 4.73933 25.9654 3.19025 25.5254C0.032261 24.6288 -1.09505 20.3426 1.25048 18.15C2.66297 16.8297 6.70289 17.3585 6.25027 18.8047C6.1012 19.2812 5.97898 19.3197 5.05796 19.1797C4.16025 19.0431 3.95608 19.0999 3.42904 19.6347C2.96276 20.1076 2.82617 20.4869 2.82617 21.3105C2.82617 22.2057 2.94133 22.4729 3.55079 22.9931C4.80056 24.0596 6.72055 23.7097 8.26728 22.1335C9.33595 21.0449 11.1752 17.6164 13.5301 12.324C15.9769 6.82482 17.4495 3.85618 18.7287 1.84508C19.888 0.0221906 20.0722 -0.132105 20.8512 0.0661386C21.7333 0.290656 21.7795 1.09653 21.0097 2.84012C19.5578 6.12857 18.5144 9.99361 18.2386 13.1022L18.0799 14.8936L20.3816 11.5497C23.3029 7.30609 24.9912 5.18178 27.6429 2.41377C29.3351 0.647255 29.8935 0.204432 30.4297 0.204432C31.273 0.204432 31.5252 0.794386 31.034 1.61793C30.8319 1.9571 29.6382 3.95434 28.3816 6.0562C23.7237 13.8469 21.6151 19.5662 22.3624 22.3812C22.684 23.5927 23.2259 23.7866 24.544 23.163C25.9817 22.4827 26.7098 21.723 27.5595 20.0159C29.1133 16.8939 32.1952 14.5353 34.7209 14.5353C35.3836 14.5353 36.1379 14.6858 36.3967 14.8697C36.8003 15.1563 36.9319 15.1563 37.3184 14.8697C37.9059 14.4338 38.9581 14.4419 39.3206 14.885C39.553 15.169 39.363 15.7181 38.3077 17.8109C37.5932 19.2277 36.7636 20.8363 36.464 21.3857C36.1647 21.9348 35.9921 22.4576 36.0806 22.5475C36.6197 23.0942 39.054 20.4685 41.5323 16.6677C42.3891 15.3538 42.3957 15.3259 42.0415 14.466C41.5811 13.3487 41.5804 11.1296 42.0398 10.2282C42.426 9.47101 43.4759 8.80295 44.2794 8.80295C44.5549 8.80295 45.0902 9.11704 45.4686 9.50111C46.0308 10.0712 46.157 10.4016 46.157 11.302C46.157 11.9333 45.9556 12.8048 45.686 13.3411C45.0659 14.5738 45.0796 14.6201 46.014 14.4663C46.981 14.3072 47.8054 14.8131 47.8054 15.5657C47.8054 15.8557 47.0575 17.0537 46.1365 18.2391C43.0197 22.2506 42.5165 24.2626 44.8806 23.2607C46.4212 22.6079 47.2012 21.8288 50.8681 17.2806C53.5386 13.9683 54.5599 12.8634 54.9508 12.8634C55.5528 12.8634 56.5188 13.4837 56.5188 13.8703C56.5188 14.0151 56.0779 14.7261 55.5389 15.4501L54.5587 16.7666L54.8715 17.8605C55.0434 18.462 55.2301 19.4107 55.2864 19.9691C55.3427 20.5275 55.4407 20.9842 55.5042 20.9842C55.5678 20.9842 56.2298 20.5502 56.9756 20.0197C58.0572 19.2499 58.4536 18.7794 58.9363 17.691C61.5765 11.7384 63.6688 7.1635 63.9571 6.71304C64.364 6.07722 65.7115 5.96831 66.1743 6.5339C66.4868 6.91606 66.4814 6.93158 63.9689 12.9293L62.8903 15.5029L63.9053 14.8998C65.0185 14.2382 65.8844 14.1345 66.4522 14.595C66.9872 15.0288 67.3574 16.3515 67.1909 17.2343C67.0407 18.0316 65.9296 20.3766 64.8769 22.1187C64.5107 22.7247 64.3777 23.1338 64.547 23.1338C65.1826 23.1338 66.8445 21.4222 67.4721 20.1212C68.2968 18.4111 70.846 15.7678 72.4147 14.9956C73.9018 14.2635 75.7846 14.204 76.5064 14.8666C76.9331 15.2583 77.0151 15.2688 77.1368 14.9478C77.4335 14.1634 79.5973 14.2902 79.5973 15.0921C79.5973 15.2733 78.8554 16.8739 77.9488 18.6485C77.0421 20.4231 76.3003 22.108 76.3003 22.3927C76.3003 23.3058 76.9463 23.2298 78.1939 22.1703C79.1524 21.3566 79.6114 20.6837 80.5329 18.7421C82.8254 13.9114 86.3056 9.46146 89.485 7.29487C91.3362 6.03351 93.0205 6.16464 93.0205 7.57002C93.0205 8.31618 91.4954 11.6512 90.4486 13.1944C89.3788 14.7713 86.984 17.0439 84.7614 18.5914C82.3184 20.292 82.2256 20.3995 82.0462 21.7256C81.8717 23.0185 82.4748 23.7701 83.4815 23.5138C84.5318 23.2463 86.6889 20.7539 88.0659 18.2174C89.8775 14.8792 90.7781 13.4612 92.2772 11.5846C93.8473 9.6191 97.1977 6.75746 98.1863 6.53724C99.1509 6.32228 99.822 6.57689 99.9807 7.21796C100.147 7.88912 99.214 10.5229 98.1726 12.3238C97.1929 14.0175 93.9528 17.3145 91.5392 19.0734C89.6435 20.4549 89.2441 21.16 89.5827 22.5283C90.0198 24.2939 92.0295 23.5563 94.2323 20.822C95.512 19.2337 95.7124 19.0739 96.0258 19.3918C96.535 19.9082 96.2708 20.6214 94.8745 22.4973C93.5527 24.2734 91.7511 25.6401 90.4093 25.8846C88.9308 26.1541 87.3577 25.1084 86.8227 23.5C86.7803 23.3729 86.3826 23.6165 85.9387 24.0412C84.8224 25.1089 82.9799 26 81.8881 26C81.1918 26 80.8101 25.8335 80.2856 25.3018C79.9072 24.9178 79.5973 24.3804 79.5973 24.1076C79.5973 23.8348 79.5398 23.6115 79.4694 23.6115C79.399 23.6115 78.7897 24.034 78.1153 24.5502C76.0436 26.1361 74.962 26.2587 73.9725 25.0191L73.5759 24.5222L72.7599 25.0093C72.311 25.2768 71.4388 25.6102 70.8218 25.7497C69.515 26.0454 68.5276 25.732 67.6207 24.7341L67.0656 24.1236L66.1302 24.8108C64.7024 25.8598 63.7628 26.1065 62.9058 25.657C62.0197 25.1922 61.4625 24.4014 61.4698 23.6182C61.4729 23.2862 62.1087 21.7855 62.8828 20.2832C63.6566 18.7806 64.2901 17.4641 64.2901 17.3571C64.2901 16.8985 63.6161 17.2448 62.4238 18.3148C61.3172 19.3084 60.9684 19.8599 59.8185 22.4319C58.3003 25.8278 57.732 26.4094 56.5776 25.7485C55.9022 25.3616 55.7416 24.4974 56.1641 23.5186C56.292 23.2224 55.7736 23.4845 54.6536 24.2822C51.8329 26.2914 49.5606 26.4557 48.0014 24.7628L47.3719 24.0792L46.1167 24.8411C45.2195 25.3857 44.4786 25.6336 43.5173 25.71C42.2675 25.8096 42.1222 25.7659 41.4567 25.0909C40.9363 24.5631 40.7408 24.1403 40.7408 23.5425C40.7408 22.396 42.1321 19.6961 43.5588 18.075C44.3062 17.2254 44.6552 16.6575 44.4923 16.5552C44.1758 16.357 44.2897 16.2256 42.0403 19.3901C39.5589 22.8811 38.132 24.4143 36.6828 25.1468C35.2114 25.8904 34.2339 25.9274 33.5394 25.2655L33.0194 24.7702L32.0617 25.2655C30.8147 25.9109 29.1039 25.9176 28.0747 25.2813C27.6497 25.0181 27.2418 24.6445 27.1686 24.4511C27.0609 24.1668 26.8445 24.232 26.0476 24.7881C24.3709 25.9582 22.3348 26.2336 20.9028 25.4839C19.8077 24.9106 19.4024 22.4416 19.8501 19.0734L20.0248 17.7598L19.2877 19.0734C17.245 22.7158 14.8058 26 14.1431 26C14.0557 26 13.7797 25.8483 13.5299 25.663ZM51.9374 23.5026C52.4068 23.0266 52.5149 22.6786 52.512 21.6515C52.5085 20.1872 52.3081 19.2626 52.0156 19.3619C51.6007 19.5029 49.6894 22.0698 49.6894 22.4861C49.6894 22.9552 50.6888 24.089 51.1024 24.089C51.2437 24.089 51.6195 23.8251 51.9374 23.5026ZM72.6996 22.3017C74.6566 20.6025 76.0519 16.4437 74.7289 16.2526C72.9897 16.0014 69.6999 19.7921 69.6349 22.1223C69.5878 23.8014 70.8844 23.8774 72.6996 22.3014V22.3017ZM32.0631 22.6843C33.6579 21.6585 34.9719 19.5263 35.2423 17.5262C35.4024 16.3417 35.1062 16.031 34.0688 16.2949C31.9117 16.8442 28.675 21.7951 29.6745 23.0168C30.1139 23.5537 30.8764 23.4474 32.0631 22.6843ZM86.61 14.5948C88.2929 12.9147 90.7536 9.28041 90.2084 9.28041C90.0994 9.28041 89.1729 10.1775 88.1497 11.2741C86.3649 13.1863 84.09 16.4458 84.5401 16.4458C84.6587 16.4458 85.5904 15.613 86.61 14.5948ZM94.3048 14.1768C95.4654 13.0943 97.7989 9.28041 97.3008 9.28041C96.6193 9.28041 91.843 15.4126 91.843 16.2875C91.843 16.4291 92.3394 16.0661 92.946 15.4804C93.397 15.0438 93.8499 14.6092 94.3048 14.1768ZM44.2457 12.3618C44.4741 11.698 44.2794 10.7135 43.9198 10.7135C43.6198 10.7135 43.3204 11.7919 43.4519 12.3995C43.648 13.3048 43.9264 13.2916 44.2459 12.3618H44.2457Z" fill="black"/>
</symbol><symbol viewBox="0 0 99.999695 59.999767" id="peavey">
<path d="M1.38301 56.8719C5.04896 49.7523 8.7253 42.6381 12.412 35.5293C17.7982 25.1548 21.2573 17.9818 21.0027 17.7145C20.841 17.5452 16.347 17.8569 11.0156 18.4074C5.68479 18.9579 0.868476 19.3168 0.313125 19.205C-0.566138 19.0268 17.1922 14.7212 46.554 7.99304C51.3672 6.88997 57.6687 5.42077 60.5566 4.72837C63.4444 4.03598 68.9581 2.75632 72.8089 1.88525C76.6597 1.01368 80.3358 0.166955 80.9774 0.00278988C81.6191 -0.160858 68.4911 6.89567 51.8047 15.684C35.1184 24.4722 21.1809 31.9819 20.8311 32.3724C20.483 32.7629 19.4327 36.6018 18.4976 40.9038L16.798 48.7252L9.50457 53.6989C6.62976 55.6614 3.75226 57.62 0.872092 59.5746C-0.38016 60.4177 -0.34658 60.2411 1.38301 56.8714V56.8719Z" fill="black"/>
<path d="M26.4096 25.5567C28.6052 24.2128 32.6183 21.7621 35.3276 20.1109C38.0369 18.4592 40.5009 16.8509 40.8041 16.5372C41.5246 15.7896 40.6297 15.8052 31.6947 16.6916C24.4207 17.4129 24.2889 17.4531 23.9671 19.0711C23.7876 19.9763 23.2714 21.9787 22.8198 23.5211C22.0214 26.2485 21.7823 28 22.2082 28C22.3236 28 24.2145 26.9006 26.4096 25.5567Z" fill="white"/>
<path d="M63.2111 57.5647C61.6155 56.2172 56.3025 51.9149 51.4046 48.0035L42.4996 40.8922L39.7223 42.4937C38.1945 43.3744 36.8043 44.0952 36.6317 44.0952C36.4591 44.0952 37.4928 40.3738 38.9276 35.8259L41.5368 27.556L43.151 29.525C44.0387 30.6075 48.1136 35.9195 52.2065 41.3294C56.2994 46.7382 61.1675 53.0386 63.0251 55.3292C67.5645 60.9275 67.5922 61.2627 63.2111 57.5641V57.5647ZM78.864 49.7814C79.9222 46.4847 82.0347 39.679 83.5584 34.6569L86.3274 25.5261L85.2435 23.2849C84.6475 22.0524 84.0403 20.7934 83.8939 20.4869C83.7398 20.1642 84.9851 20.0991 86.8591 20.3328C90.0319 20.7278 90.1522 20.6846 93.477 17.961C99.0073 13.4307 100.28 12.472 99.9521 13.0857C99.7805 13.4057 98.5943 15.6037 97.3161 17.9703C95.993 20.4206 94.6857 22.8795 93.3943 25.3471C92.5158 27.0371 89.6544 32.4313 87.0343 37.3337C84.4153 42.2355 81.1634 48.3902 79.8082 51.0108C78.4535 53.6309 77.2534 55.7747 77.1419 55.7747C77.031 55.7747 77.8057 53.0776 78.864 49.7814ZM21.7854 41.8717C26.8868 30.3244 27.438 29.3449 28.8441 29.3152C29.5566 29.3006 32.0976 29.0482 34.491 28.7541C36.8845 28.4601 38.9035 28.2831 38.9774 28.3601C39.0514 28.4382 37.4989 29.7061 35.5272 31.1796C32.471 33.4629 32.1089 33.9225 33.0716 34.2972C37.109 35.8706 37.1367 35.5557 32.6724 38.804L28.5395 41.8108L30.7896 43.8162L33.0408 45.8216L31.01 46.1652C29.8931 46.3546 26.7337 46.8839 23.9893 47.342L19 48.1747L21.7854 41.8717ZM50.8687 34.2785C47.961 30.2115 45.6513 26.8835 45.7366 26.8835C45.8219 26.8835 47.8305 27.5825 50.1999 28.4372L54.508 29.9903L61.748 21.8292C70.5354 11.9239 77.6531 4.22763 77.2555 5.06196C77.0942 5.40027 74.8101 9.41055 72.1788 13.9751C68.8282 19.8017 65.4999 25.6413 62.1939 31.4939C59.3335 36.5649 56.8049 40.9302 56.5742 41.1941C56.3441 41.458 53.7765 38.346 50.8687 34.2785ZM65.638 31.2826L70.1341 22.181L75.6079 21.4487C78.6184 21.0458 81.1768 20.8174 81.2934 20.9407C81.4095 21.0641 80.0651 22.1779 78.305 23.4161C76.545 24.6538 75.1055 25.9186 75.1055 26.2267C75.1055 26.5338 75.8854 26.9673 76.8394 27.1896C77.7928 27.4113 78.6934 27.7985 78.8403 28.0504C78.9873 28.3023 77.4327 29.6743 75.386 31.1004C73.3398 32.526 71.53 33.924 71.3645 34.2077C71.1996 34.4908 72.1089 35.4891 73.3855 36.4265C74.6622 37.3639 75.6269 38.2154 75.5293 38.3184C75.4317 38.4215 72.8816 38.7999 69.8619 39.159C66.8422 39.5181 63.6447 39.9408 62.757 40.0979C61.1567 40.3816 61.1824 40.3025 65.638 31.2826Z" fill="black"/>
</symbol><symbol viewBox="0 0 100 15.5" id="roland">
<path d="M88.7581 15.4997C90.2761 15.4961 91.7759 14.9444 92.5489 13.7663C92.5603 14.2334 92.776 14.9233 92.843 15.1813H95C94.9525 14.52 94.874 13.8301 94.8692 13.1649V0.5H92.6143V6.16025C91.9426 5.31826 90.4231 4.69221 89.1828 4.70974C85.5211 4.69221 83.668 7.34538 83.6599 10.0871C83.668 12.7052 85.2954 15.4963 88.7581 15.4997ZM49.6405 4.70996C49.5504 4.703 43.9133 4.76659 43.4967 10.1226C43.2171 13.2995 45.7762 15.5071 49.6405 15.4997C53.472 15.5069 55.7857 13.3101 55.7842 10.1226C55.7857 7.01662 53.2366 4.87265 49.6405 4.70996ZM56.6338 0.5H59.2809V15.1813H56.6338V0.5ZM74.5424 9.06127C74.5997 7.58964 76.8839 6.5072 78.0065 6.51417C79.7269 6.5072 80.119 7.96109 80.1634 9.06127V15.1813H82.3856V8.56601C82.3839 8.21591 82.3447 7.56852 82.1568 6.93865C81.7269 5.44589 79.5112 4.46952 78.3332 4.46211C76.5505 4.4693 75.3052 5.3077 74.5752 6.23103L74.5424 6.19575V4.63918H72.2548V15.1815H74.5424V9.06127ZM68.4966 13.8371C68.5014 14.2651 68.5504 14.7429 68.6272 15.1813H70.8167C70.7756 14.8914 70.6777 14.5943 70.6532 14.0847V8.53073C70.6579 5.44589 68.2755 4.703 65.9147 4.70996C64.6385 4.703 63.3835 4.86232 62.4178 5.3468C61.4814 5.81734 60.8539 6.61349 60.8166 7.8939H63.3003C63.256 7.41998 64.0893 6.42249 65.784 6.40811C67.0404 6.42249 68.2363 6.9955 68.2348 7.68154V8.63679C66.8248 8.59792 64.207 8.65095 62.8102 9.20284C60.658 9.97787 60.2756 11.6971 60.2611 12.4223C60.2756 14.4141 61.9325 15.5073 64.1499 15.4999C65.7366 15.5071 67.6974 15.0188 68.4966 13.8371ZM33.268 8.9197H37.7451C38.9426 8.94802 39.7368 10.4446 39.8365 11.2547C39.9917 12.5672 40.1582 13.8833 40.4573 15.1815H43.2352C42.5504 14.382 42.4229 12.6524 42.2548 11.7147C41.9523 9.70192 42.1875 8.6087 40.3919 8.24782V8.21254C42.4916 7.813 42.8835 6.25283 42.8756 4.35649C42.8837 1.34963 40.1092 0.532358 37.1894 0.500449H30.5882V15.1817H33.268V8.9197ZM0 0.641568H24.4444C26.9916 0.765609 28.825 2.31499 28.9869 5.34657C28.9034 8.09906 27.2955 9.89248 24.4444 10.0163H9.60784V10.8653H28.8235V12.4571H8.13734V8.42444H24.4118C26.4035 8.35388 27.3742 7.3456 27.5164 5.3468C27.3152 3.19608 26.1879 2.32578 24.4118 2.23365H1.4707V15.1107H0V0.641568Z" fill="#FF8200"/>
<path d="M4.46425 12.8852V15.2852H3V3.5H24.835V7.65526H9.05255C7.16332 7.74149 5.50395 8.60112 5.47315 11.0583C5.8357 13.1359 7.13418 13.8131 9.05255 13.8881H29V15.5H9.01989C7.27081 15.4251 5.2987 14.791 4.46425 12.8852Z" fill="#FF8200"/>
<path d="M4 8.5C4.90733 6.90509 6.75171 6.34358 8.57821 6.27226H23V5.5H4V8.5Z" fill="white"/>
<path d="M99.9998 2C100.012 1.16501 99.3291 0.5 98.5173 0.5C97.6639 0.5 96.9813 1.16501 97.0004 2C96.9916 2.81139 97.6639 3.48636 98.5173 3.5C99.3293 3.47618 100.012 2.81139 99.9998 2Z" fill="#FF8200"/>
<path d="M89.2932 6.4213C91.2292 6.43513 92.6284 8.60979 92.6432 9.96063C92.6284 11.3253 91.3671 13.3571 89.4574 13.3638C87.1797 13.3571 85.9184 11.4684 85.9102 9.96063C85.9184 8.45652 87.0416 6.43513 89.2932 6.4213ZM49.4544 13.5C47.2653 13.5103 45.8759 11.5298 45.8745 9.99478C45.8759 8.40551 47.1669 6.51684 49.4544 6.52354V6.48939V6.52354C51.7089 6.51684 52.9996 8.40573 53.0015 9.99478C52.9996 11.5298 51.6004 13.5103 49.4544 13.5ZM68.142 10.5393C68.0746 12.5711 66.7543 13.2959 64.792 13.2959C63.7983 13.2959 62.803 13.153 62.8541 11.7985C62.8623 10.7847 64.7342 9.89621 68.1418 10.2672V10.5393H68.142ZM33 2.81409H37.5324C39.1465 2.83116 40.0924 3.64785 40.0943 4.88996C40.0924 6.14936 39.1467 6.82315 37.5324 6.82985H33V2.81409ZM99.9999 1.82728C100.008 2.54539 99.4364 3.13769 98.752 3.15455C98.0276 3.13769 97.4562 2.54561 97.471 1.82728C97.4562 1.09576 98.0276 0.503459 98.719 0.5C99.4366 0.503459 100.008 1.09555 99.9999 1.82728Z" fill="white"/>
<path d="M98 3.5H98.1538V2.64275H98.5641C98.8242 2.63886 98.755 2.99384 98.7692 3.25522L98.7949 3.5H99C98.9243 3.31227 98.9474 3.26326 98.9231 3.01018C98.9166 2.66349 98.9089 2.63886 98.7949 2.52036C98.9089 2.35725 98.955 2.27168 98.9487 2.03053C98.9319 1.57338 98.7473 1.51219 98.5641 1.5H98V3.5Z" fill="#FF8200"/>
<path d="M98.6391 1.50228C98.7807 1.48513 99.0204 1.55558 98.9986 2.0304C98.9606 2.40049 98.7926 2.47093 98.6391 2.5H98V1.50228H98.6391Z" fill="white"/>
</symbol></svg>